<svg width="35" height="43" viewBox="0 0 35 43" fill="none" xmlns="http://www.w3.org/2000/svg">
<path d="M29.2186 22.4875C29.1699 17.2113 33.6495 14.6444 33.8544 14.5249C31.3174 10.9185 27.3851 10.4258 26.0033 10.3865C22.7007 10.0476 19.4971 12.3133 17.8148 12.3133C16.0988 12.3133 13.5081 10.4192 10.7159 10.4749C7.1228 10.5289 3.76142 12.5572 1.91786 15.7068C-1.88678 22.1289 0.950751 31.5665 4.59589 36.7575C6.41929 39.2998 8.54996 42.1384 11.3388 42.0386C14.0672 41.9289 15.0864 40.3426 18.3789 40.3426C21.6412 40.3426 22.5983 42.0386 25.4425 41.9747C28.3707 41.9289 30.2143 39.421 31.9739 36.8557C34.081 33.9418 34.9272 31.0721 34.9608 30.9247C34.892 30.9018 29.274 28.8113 29.2186 22.4875Z" fill="black"/>
<path d="M23.8458 6.97162C25.3132 5.18233 26.3173 2.74806 26.0386 0.277771C23.9146 0.369445 21.2584 1.71018 19.7288 3.46017C18.3755 5.00226 17.1667 7.52985 17.4789 9.90682C19.8648 10.0803 22.3145 8.73307 23.8458 6.97162Z" fill="black"/>
</svg>
