<svg width="40" height="43" viewBox="0 0 40 43" fill="none" xmlns="http://www.w3.org/2000/svg">
<path d="M1.2231 0.761085C0.729889 1.26447 0.444458 2.04821 0.444458 3.06317V39.2662C0.444458 40.2812 0.729889 41.0649 1.2231 41.5683L1.34483 41.6788L22.152 21.4V20.9212L1.34483 0.642402L1.2231 0.761085Z" fill="url(#paint0_linear_58_6)"/>
<path d="M29.0799 28.1631L22.1519 21.4001V20.9212L29.0883 14.1582L29.2436 14.2462L37.4581 18.8033C39.8025 20.0966 39.8025 22.2247 37.4581 23.5262L29.2436 28.0751L29.0799 28.1631V28.1631Z" fill="url(#paint1_linear_58_6)"/>
<path d="M29.2436 28.0751L22.1519 21.1607L1.22302 41.5684C2.00166 42.3664 3.27142 42.4626 4.71537 41.6645L29.2436 28.0751" fill="url(#paint2_linear_58_6)"/>
<path d="M29.2436 14.2462L4.71537 0.656762C3.27142 -0.133108 2.00166 -0.0369347 1.22302 0.761121L22.1519 21.1606L29.2436 14.2462Z" fill="url(#paint3_linear_58_6)"/>
<defs>
<linearGradient id="paint0_linear_58_6" x1="20.3046" y1="39.6433" x2="-7.16005" y2="11.4744" gradientUnits="userSpaceOnUse">
<stop stop-color="#00A0FF"/>
<stop offset="0.0066" stop-color="#00A1FF"/>
<stop offset="0.2601" stop-color="#00BEFF"/>
<stop offset="0.5122" stop-color="#00D2FF"/>
<stop offset="0.7604" stop-color="#00DFFF"/>
<stop offset="1" stop-color="#00E3FF"/>
</linearGradient>
<linearGradient id="paint1_linear_58_6" x1="40.5108" y1="21.1584" x2="-0.116038" y2="21.1584" gradientUnits="userSpaceOnUse">
<stop stop-color="#FFE000"/>
<stop offset="0.4087" stop-color="#FFBD00"/>
<stop offset="0.7754" stop-color="#FFA500"/>
<stop offset="1" stop-color="#FF9C00"/>
</linearGradient>
<linearGradient id="paint2_linear_58_6" x1="25.3874" y1="17.4019" x2="-11.8569" y2="-20.7974" gradientUnits="userSpaceOnUse">
<stop stop-color="#FF3A44"/>
<stop offset="1" stop-color="#C31162"/>
</linearGradient>
<linearGradient id="paint3_linear_58_6" x1="-4.04521" y1="53.6129" x2="12.586" y2="36.5554" gradientUnits="userSpaceOnUse">
<stop stop-color="#32A071"/>
<stop offset="0.0685" stop-color="#2DA771"/>
<stop offset="0.4762" stop-color="#15CF74"/>
<stop offset="0.8009" stop-color="#06E775"/>
<stop offset="1" stop-color="#00F076"/>
</linearGradient>
</defs>
</svg>
