<svg width="45" height="45" viewBox="0 0 45 45" fill="none" xmlns="http://www.w3.org/2000/svg">
<g filter="url(#filter0_d_58_15)">
<path fill-rule="evenodd" clip-rule="evenodd" d="M17.5832 7.96477C13.9536 9.24987 10.954 11.934 9.21182 15.3958H14.8707C15.2269 13.5272 15.7242 11.8237 16.338 10.3592C16.7031 9.48778 17.1181 8.6803 17.5832 7.96477ZM14.4543 18.2292H8.1227C7.76232 19.5421 7.56942 20.9278 7.56942 22.3611C7.56942 23.7944 7.76232 25.1801 8.1227 26.4931H14.4543C14.3136 25.1649 14.2397 23.7805 14.2397 22.3611C14.2397 20.9417 14.3136 19.5573 14.4543 18.2292ZM17.3047 26.4931C17.1544 25.1843 17.073 23.799 17.073 22.3611C17.073 20.9232 17.1544 19.5379 17.3047 18.2292H27.5843C27.7347 19.5379 27.8161 20.9232 27.8161 22.3611C27.8161 23.799 27.7347 25.1843 27.5843 26.4931H17.3047ZM14.8707 29.3264H9.21182C10.954 32.7882 13.9536 35.4724 17.5832 36.7575C17.1181 36.0419 16.7031 35.2344 16.338 34.363C15.7242 32.8985 15.2269 31.195 14.8707 29.3264ZM27.3059 36.7574C30.9354 35.4722 33.9349 32.7881 35.677 29.3264H30.0183C29.6621 31.195 29.1648 32.8985 28.5511 34.363C28.1859 35.2344 27.771 36.0419 27.3059 36.7574ZM27.1288 29.3264C26.8177 30.8055 26.4126 32.1353 25.9379 33.268C25.3669 34.6307 24.723 35.6414 24.0804 36.29C23.443 36.9334 22.8912 37.1434 22.4445 37.1434C21.9978 37.1434 21.446 36.9334 20.8086 36.29C20.1661 35.6414 19.5222 34.6307 18.9511 33.268C18.4765 32.1353 18.0714 30.8055 17.7603 29.3264H27.1288ZM30.4348 26.4931H36.7661C37.1265 25.1801 37.3194 23.7944 37.3194 22.3611C37.3194 20.9278 37.1265 19.5421 36.7661 18.2292H30.4348C30.5755 19.5573 30.6494 20.9417 30.6494 22.3611C30.6494 23.7805 30.5755 25.1649 30.4348 26.4931ZM30.0183 15.3958H35.677C33.9349 11.9341 30.9354 9.25001 27.306 7.96487C27.771 8.68037 28.1859 9.48782 28.5511 10.3592C29.1648 11.8237 29.6621 13.5272 30.0183 15.3958ZM27.1288 15.3958H17.7603C18.0714 13.9167 18.4765 12.5869 18.9511 11.4542C19.5222 10.0915 20.1661 9.08077 20.8086 8.43219C21.446 7.78882 21.9978 7.57879 22.4445 7.57879C22.8912 7.57879 23.443 7.78882 24.0804 8.43219C24.723 9.08077 25.3669 10.0915 25.9379 11.4542C26.4126 12.5869 26.8177 13.9167 27.1288 15.3958ZM5.7445 16.3407L5.73865 16.3576C5.08914 18.2373 4.73608 20.2583 4.73608 22.3611C4.73608 32.3079 12.6358 40.4236 22.4444 40.4236C30.1633 40.4236 36.7001 35.3976 39.135 28.4083C39.1438 28.3851 39.1519 28.3616 39.1594 28.3378C39.803 26.4656 40.1527 24.4539 40.1527 22.3611C40.1527 20.2635 39.8014 18.2474 39.155 16.3716C39.1501 16.3564 39.1449 16.3414 39.1394 16.3265C36.708 9.33074 30.168 4.29861 22.4444 4.29861C14.7156 4.29861 8.17201 9.33753 5.7445 16.3407Z" fill="url(#paint0_linear_58_15)"/>
</g>
<defs>
<filter id="filter0_d_58_15" x="4.26386" y="4.29861" width="36.3612" height="37.5417" filterUnits="userSpaceOnUse" color-interpolation-filters="sRGB">
<feFlood flood-opacity="0" result="BackgroundImageFix"/>
<feColorMatrix in="SourceAlpha" type="matrix" values="0 0 0 0 0 0 0 0 0 0 0 0 0 0 0 0 0 0 127 0" result="hardAlpha"/>
<feOffset dy="0.944444"/>
<feGaussianBlur stdDeviation="0.236111"/>
<feComposite in2="hardAlpha" operator="out"/>
<feColorMatrix type="matrix" values="0 0 0 0 0 0 0 0 0 0 0 0 0 0 0 0 0 0 0.15 0"/>
<feBlend mode="normal" in2="BackgroundImageFix" result="effect1_dropShadow_58_15"/>
<feBlend mode="normal" in="SourceGraphic" in2="effect1_dropShadow_58_15" result="shape"/>
</filter>
<linearGradient id="paint0_linear_58_15" x1="10.6389" y1="4.88889" x2="37.5555" y2="32.2778" gradientUnits="userSpaceOnUse">
<stop stop-color="#D94F99"/>
<stop offset="1" stop-color="#5D79E5"/>
</linearGradient>
</defs>
</svg>
